<!-- Generator: Adobe Illustrator 23.0.4, SVG Export Plug-In  -->
<svg version="1.1" xmlns="http://www.w3.org/2000/svg" xmlns:xlink="http://www.w3.org/1999/xlink" x="0px" y="0px" width="100" viewBox="0 0 39.9 35" style="enable-background:new 0 0 39.9 35;" xml:space="preserve">
<style type="text/css">
	.st0{opacity:0.5;fill:#FFFFFF;enable-background:new    ;}
	.st1{fill:#FFFFFF;}
</style>
<defs>
</defs>
<g>
	<path class="st0" d="M25.8,28l-0.5-5.4L27,9.7c0-0.1,0.1-0.3,0.3-0.4C27.6,9.1,27.8,9,28.1,9c0.1,0,0.3,0.2,0.3,0.4l0.8,8.9
		l-1.8,9.3l0,0c0,0.1-0.1,0.4-0.3,0.5c-0.3,0.3-0.6,0.4-0.8,0.4C26,28.4,25.8,28.3,25.8,28z"/>
	<path class="st0" d="M19.2,27.1l-0.5-1.8l0.7-9c0-0.1,0.1-0.4,0.3-0.5c0.1-0.1,0.3-0.3,0.5-0.4c0.3,0.1,0.5,0.3,0.5,0.5l1.1,4.1
		l-0.9,6.7v0c0,0.1-0.1,0.3-0.3,0.4c-0.2,0.3-0.5,0.4-0.8,0.5C19.5,27.6,19.3,27.4,19.2,27.1z"/>
	<path class="st0" d="M13,26.2l-0.8-1.4l0.5-4.2c0-0.1,0.1-0.3,0.2-0.4c0.2-0.1,0.4-0.3,0.6-0.3c0.3,0,0.5,0.2,0.6,0.4l0.8,1.4
		l-0.3,4v0c0,0.1-0.1,0.2-0.3,0.3c-0.2,0.3-0.5,0.4-0.8,0.4C13.4,26.5,13.1,26.4,13,26.2z M12.7,20.6L12.7,20.6L12.7,20.6L12.7,20.6
		z"/>
	<path class="st1" d="M8.7,31.2c0-2,1.7-3.7,3.7-3.7c2,0,3.7,1.6,3.7,3.7s-1.7,3.7-3.7,3.7C10.3,34.9,8.7,33.3,8.7,31.2z"/>
	<path class="st1" d="M22.2,32.1c0-1.5,1.3-2.8,2.9-2.8c1.6,0,2.8,1.3,2.8,2.8c0,1.6-1.2,2.9-2.8,2.9C23.5,35,22.2,33.7,22.2,32.1z"
		/>
	<path class="st1" d="M11.6,26.4l-3-0.5l-0.5,0l0,0l-0.2,0l0,0l-0.7-0.1c0.2,0,0.5-0.1,0.6-0.3c0.1-0.1,0.1-0.2,0.2-0.4l0,0l0.6-5.5
		c0-0.3,0.3-0.5,0.6-0.5l0.4,0l3.1,0.6l0,0l0.3,0l0,0l0.7,0.1c-0.2,0-0.4,0.1-0.6,0.3c-0.1,0.1-0.1,0.3-0.2,0.4L12.1,26
		C12.1,26.3,11.8,26.5,11.6,26.4z M12.7,20.6L12.7,20.6L12.7,20.6L12.7,20.6z"/>
	<path class="st1" d="M18.1,27.4L18.1,27.4l-3.5-0.6l0,0l-1-0.1c0.3,0,0.6-0.1,0.8-0.4c0.1-0.1,0.2-0.2,0.3-0.3v0l0.8-10.7
		c0-0.3,0.3-0.5,0.6-0.5h0l4.2,0.8l0,0c-0.1,0.1-0.3,0.2-0.5,0.4c-0.1,0.1-0.2,0.3-0.3,0.5l-0.8,10.6C18.6,27.2,18.3,27.4,18.1,27.4
		z"/>
	<path class="st1" d="M24.3,28.2l-3.6-0.5l-1-0.1c0.3,0,0.6-0.2,0.8-0.5c0.1-0.1,0.2-0.3,0.3-0.4v0l2.5-18.4c0-0.1,0-0.3,0.1-0.3
		C23.6,8,23.8,8,23.9,8c0,0,0,0,0.1,0l0,0l3.2,0.7l0,0L28.1,9c-0.3,0-0.6,0.1-0.8,0.4c-0.1,0.1-0.3,0.3-0.3,0.4l-2.5,18.1
		C24.6,28,24.4,28.1,24.3,28.2L24.3,28.2z"/>
	<path class="st1" d="M31,29.3l-3.8-0.6l0,0l-1-0.2c0.3,0,0.6-0.1,0.9-0.4c0.1-0.1,0.3-0.3,0.3-0.5l0,0l5.4-27.1
		c0-0.1,0-0.2,0.1-0.3c0.1-0.1,0.4-0.3,0.6-0.3L38,0.6c-0.3,0-0.6,0.1-0.8,0.4c-0.1,0.1-0.3,0.3-0.3,0.5l-5.5,27.5
		C31.3,29.1,31.1,29.3,31,29.3L31,29.3z"/>
	<path class="st0" d="M39.5,6.1l-3.4-0.9l0.8-3.8c0-0.2,0.1-0.4,0.3-0.5c0.2-0.2,0.5-0.3,0.8-0.4c0.2,0,0.4,0.2,0.5,0.4l1.4,4.8
		c0,0.2,0,0.4-0.3,0.4H39.5z"/>
	<path class="st0" d="M6.6,25.5L0,12.5c-0.2-0.4,0.4-0.9,0.8-0.9l5,0.8l0,0l4,0.6l-1.2,3.2l-1.5-0.2l-1.5-0.1L7.5,20l0.8,1.9L8,25.1
		l0,0c0,0.1-0.1,0.3-0.2,0.4c-0.1,0.2-0.4,0.3-0.6,0.3C6.9,25.7,6.6,25.6,6.6,25.5z"/>
	<path class="st1" d="M2,16.3L0,12.5c-0.2-0.4,0.4-0.9,0.8-0.9l5,0.8l0,0l4,0.6l-1.2,3.2l-1.5-0.2l-1.5-0.1c0,0-2-0.2-2.7-0.3
		C1.9,15.3,2,16.3,2,16.3z"/>
</g>
</svg>
